<mxfile host="Electron" modified="2024-08-19T16:47:57.838Z" agent="Mozilla/5.0 (Windows NT 10.0; Win64; x64) AppleWebKit/537.36 (KHTML, like Gecko) draw.io/22.1.16 Chrome/120.0.6099.109 Electron/28.1.0 Safari/537.36" etag="nichto2AQUBaPo1SSkLN" version="22.1.16" type="device">
  <diagram name="Page-1" id="8CVPvKOG5eJQyPqVQ8sF">
    <mxGraphModel dx="1098" dy="660" grid="1" gridSize="10" guides="1" tooltips="1" connect="1" arrows="1" fold="1" page="1" pageScale="1" pageWidth="800" pageHeight="140" math="0" shadow="0">
      <root>
        <mxCell id="0" />
        <mxCell id="1" parent="0" />
        <mxCell id="BwxQA0fLe51tiPNvm457-1" value="0x01" style="rounded=0;whiteSpace=wrap;html=1;" vertex="1" parent="1">
          <mxGeometry x="180" y="355" width="30" height="30" as="geometry" />
        </mxCell>
        <mxCell id="BwxQA0fLe51tiPNvm457-2" value="0x02" style="rounded=0;whiteSpace=wrap;html=1;" vertex="1" parent="1">
          <mxGeometry x="220" y="355" width="30" height="30" as="geometry" />
        </mxCell>
        <mxCell id="BwxQA0fLe51tiPNvm457-3" value="0x03" style="rounded=0;whiteSpace=wrap;html=1;" vertex="1" parent="1">
          <mxGeometry x="260" y="355" width="30" height="30" as="geometry" />
        </mxCell>
        <mxCell id="BwxQA0fLe51tiPNvm457-4" value="0x04" style="rounded=0;whiteSpace=wrap;html=1;" vertex="1" parent="1">
          <mxGeometry x="300" y="355" width="30" height="30" as="geometry" />
        </mxCell>
        <mxCell id="BwxQA0fLe51tiPNvm457-5" value="0x05" style="rounded=0;whiteSpace=wrap;html=1;" vertex="1" parent="1">
          <mxGeometry x="340" y="355" width="30" height="30" as="geometry" />
        </mxCell>
        <mxCell id="BwxQA0fLe51tiPNvm457-6" value="0x06" style="rounded=0;whiteSpace=wrap;html=1;" vertex="1" parent="1">
          <mxGeometry x="380" y="355" width="30" height="30" as="geometry" />
        </mxCell>
        <mxCell id="BwxQA0fLe51tiPNvm457-7" value="0x07" style="rounded=0;whiteSpace=wrap;html=1;" vertex="1" parent="1">
          <mxGeometry x="420" y="355" width="30" height="30" as="geometry" />
        </mxCell>
        <mxCell id="BwxQA0fLe51tiPNvm457-8" value="0x08" style="rounded=0;whiteSpace=wrap;html=1;" vertex="1" parent="1">
          <mxGeometry x="460" y="355" width="30" height="30" as="geometry" />
        </mxCell>
        <mxCell id="BwxQA0fLe51tiPNvm457-9" value="0x09" style="rounded=0;whiteSpace=wrap;html=1;" vertex="1" parent="1">
          <mxGeometry x="500" y="355" width="30" height="30" as="geometry" />
        </mxCell>
        <mxCell id="BwxQA0fLe51tiPNvm457-10" value="0x0a" style="rounded=0;whiteSpace=wrap;html=1;" vertex="1" parent="1">
          <mxGeometry x="540" y="355" width="30" height="30" as="geometry" />
        </mxCell>
        <mxCell id="BwxQA0fLe51tiPNvm457-11" value="" style="endArrow=none;html=1;rounded=0;" edge="1" parent="1">
          <mxGeometry width="50" height="50" relative="1" as="geometry">
            <mxPoint x="180" y="395" as="sourcePoint" />
            <mxPoint x="250" y="395" as="targetPoint" />
          </mxGeometry>
        </mxCell>
        <mxCell id="BwxQA0fLe51tiPNvm457-12" value="" style="endArrow=none;html=1;rounded=0;" edge="1" parent="1">
          <mxGeometry width="50" height="50" relative="1" as="geometry">
            <mxPoint x="260" y="395" as="sourcePoint" />
            <mxPoint x="330" y="395" as="targetPoint" />
          </mxGeometry>
        </mxCell>
        <mxCell id="BwxQA0fLe51tiPNvm457-13" value="" style="endArrow=none;html=1;rounded=0;" edge="1" parent="1">
          <mxGeometry width="50" height="50" relative="1" as="geometry">
            <mxPoint x="340" y="395" as="sourcePoint" />
            <mxPoint x="410" y="395" as="targetPoint" />
          </mxGeometry>
        </mxCell>
        <mxCell id="BwxQA0fLe51tiPNvm457-14" value="" style="endArrow=none;html=1;rounded=0;" edge="1" parent="1">
          <mxGeometry width="50" height="50" relative="1" as="geometry">
            <mxPoint x="420" y="395" as="sourcePoint" />
            <mxPoint x="490" y="395" as="targetPoint" />
          </mxGeometry>
        </mxCell>
        <mxCell id="BwxQA0fLe51tiPNvm457-15" value="" style="endArrow=none;html=1;rounded=0;" edge="1" parent="1">
          <mxGeometry width="50" height="50" relative="1" as="geometry">
            <mxPoint x="500" y="395" as="sourcePoint" />
            <mxPoint x="570" y="395" as="targetPoint" />
          </mxGeometry>
        </mxCell>
        <mxCell id="BwxQA0fLe51tiPNvm457-16" value="0" style="text;strokeColor=none;align=center;fillColor=none;html=1;verticalAlign=middle;whiteSpace=wrap;rounded=0;" vertex="1" parent="1">
          <mxGeometry x="190" y="395" width="50" height="20" as="geometry" />
        </mxCell>
        <mxCell id="BwxQA0fLe51tiPNvm457-17" value="1" style="text;strokeColor=none;align=center;fillColor=none;html=1;verticalAlign=middle;whiteSpace=wrap;rounded=0;" vertex="1" parent="1">
          <mxGeometry x="270" y="395" width="50" height="20" as="geometry" />
        </mxCell>
        <mxCell id="BwxQA0fLe51tiPNvm457-18" value="2" style="text;strokeColor=none;align=center;fillColor=none;html=1;verticalAlign=middle;whiteSpace=wrap;rounded=0;" vertex="1" parent="1">
          <mxGeometry x="350" y="395" width="50" height="20" as="geometry" />
        </mxCell>
        <mxCell id="BwxQA0fLe51tiPNvm457-19" value="3" style="text;strokeColor=none;align=center;fillColor=none;html=1;verticalAlign=middle;whiteSpace=wrap;rounded=0;" vertex="1" parent="1">
          <mxGeometry x="430" y="395" width="50" height="20" as="geometry" />
        </mxCell>
        <mxCell id="BwxQA0fLe51tiPNvm457-20" value="4" style="text;strokeColor=none;align=center;fillColor=none;html=1;verticalAlign=middle;whiteSpace=wrap;rounded=0;" vertex="1" parent="1">
          <mxGeometry x="510" y="395" width="50" height="20" as="geometry" />
        </mxCell>
        <mxCell id="BwxQA0fLe51tiPNvm457-23" value="0xffacb10" style="text;strokeColor=none;align=center;fillColor=none;html=1;verticalAlign=middle;whiteSpace=wrap;rounded=0;rotation=-90;" vertex="1" parent="1">
          <mxGeometry x="165" y="300" width="60" height="30" as="geometry" />
        </mxCell>
        <mxCell id="BwxQA0fLe51tiPNvm457-24" value="0xffacb11" style="text;strokeColor=none;align=center;fillColor=none;html=1;verticalAlign=middle;whiteSpace=wrap;rounded=0;rotation=-90;" vertex="1" parent="1">
          <mxGeometry x="205" y="300" width="60" height="30" as="geometry" />
        </mxCell>
        <mxCell id="BwxQA0fLe51tiPNvm457-25" value="0xffacb12" style="text;strokeColor=none;align=center;fillColor=none;html=1;verticalAlign=middle;whiteSpace=wrap;rounded=0;rotation=-90;" vertex="1" parent="1">
          <mxGeometry x="245" y="300" width="60" height="30" as="geometry" />
        </mxCell>
        <mxCell id="BwxQA0fLe51tiPNvm457-26" value="0xffacb13" style="text;strokeColor=none;align=center;fillColor=none;html=1;verticalAlign=middle;whiteSpace=wrap;rounded=0;rotation=-90;" vertex="1" parent="1">
          <mxGeometry x="285" y="300" width="60" height="30" as="geometry" />
        </mxCell>
        <mxCell id="BwxQA0fLe51tiPNvm457-27" value="0xffacb14" style="text;strokeColor=none;align=center;fillColor=none;html=1;verticalAlign=middle;whiteSpace=wrap;rounded=0;rotation=-90;" vertex="1" parent="1">
          <mxGeometry x="325" y="300" width="60" height="30" as="geometry" />
        </mxCell>
        <mxCell id="BwxQA0fLe51tiPNvm457-28" value="0xffacb15" style="text;strokeColor=none;align=center;fillColor=none;html=1;verticalAlign=middle;whiteSpace=wrap;rounded=0;rotation=-90;" vertex="1" parent="1">
          <mxGeometry x="365" y="300" width="60" height="30" as="geometry" />
        </mxCell>
        <mxCell id="BwxQA0fLe51tiPNvm457-29" value="0xffacb16" style="text;strokeColor=none;align=center;fillColor=none;html=1;verticalAlign=middle;whiteSpace=wrap;rounded=0;rotation=-90;" vertex="1" parent="1">
          <mxGeometry x="405" y="300" width="60" height="30" as="geometry" />
        </mxCell>
        <mxCell id="BwxQA0fLe51tiPNvm457-30" value="0xffacb17" style="text;strokeColor=none;align=center;fillColor=none;html=1;verticalAlign=middle;whiteSpace=wrap;rounded=0;rotation=-90;" vertex="1" parent="1">
          <mxGeometry x="445" y="300" width="60" height="30" as="geometry" />
        </mxCell>
        <mxCell id="BwxQA0fLe51tiPNvm457-31" value="0xffacb18" style="text;strokeColor=none;align=center;fillColor=none;html=1;verticalAlign=middle;whiteSpace=wrap;rounded=0;rotation=-90;" vertex="1" parent="1">
          <mxGeometry x="485" y="300" width="60" height="30" as="geometry" />
        </mxCell>
        <mxCell id="BwxQA0fLe51tiPNvm457-32" value="0xffacb19" style="text;strokeColor=none;align=center;fillColor=none;html=1;verticalAlign=middle;whiteSpace=wrap;rounded=0;rotation=-90;" vertex="1" parent="1">
          <mxGeometry x="525" y="300" width="60" height="30" as="geometry" />
        </mxCell>
      </root>
    </mxGraphModel>
  </diagram>
</mxfile>
